<?xml version="1.0" encoding="UTF-8"?>
<svg width="335px" height="127px" viewBox="0 0 335 127" version="1.1" xmlns="http://www.w3.org/2000/svg" xmlns:xlink="http://www.w3.org/1999/xlink">
    <!-- Generator: Sketch 44.1 (41455) - http://www.bohemiancoding.com/sketch -->
    <title>sea-logo</title>
    <desc>Created with Sketch.</desc>
    <defs></defs>
    <g id="Page-1" stroke="none" stroke-width="1" fill="none" fill-rule="evenodd">
        <g id="landing" transform="translate(-226.000000, -1099.000000)" fill="#18B17D">
            <g id="sea-logo" transform="translate(226.000000, 1099.000000)">
                <path d="M162.56952,4.07340288 C158.602607,3.02992692 154.657052,2.5066625 150.733464,2.5066625 C143.04921,2.5066625 136.892289,4.07340288 132.257817,7.20688365 C127.623345,10.3397538 125.306414,14.4977827 125.306414,19.6773067 C125.306414,24.1888596 126.433454,27.823624 128.688145,30.5809894 C130.942835,33.3383548 133.718026,35.4497298 137.01738,36.9102298 C140.315513,38.3731721 144.802926,39.9808212 150.482671,41.7356192 C156.494365,43.5746769 161.295422,45.3074942 164.887061,46.937124 C168.47626,48.5661433 171.504074,50.969374 173.968063,54.1431529 C176.429611,57.3199846 177.662826,61.4969413 177.662826,66.6764654 C177.662826,71.0219413 176.451578,74.8447635 174.030303,78.1443212 C171.607808,81.4463212 168.163227,83.9942587 163.69717,85.7899654 C159.228673,87.5875038 153.989493,88.4844413 147.977189,88.4844413 C142.466469,88.4844413 137.01738,87.3567058 131.631751,85.100624 C126.245513,82.8445423 121.714775,79.8362298 118.041369,76.0769077 L119.795085,74.3221096 C123.134101,77.9153548 127.351806,80.7569798 132.445759,82.8445423 C137.538491,84.9339365 142.716651,85.9780231 147.977189,85.9780231 C156.244183,85.9780231 162.839839,84.223225 167.767817,80.7136288 C172.693964,77.2046433 175.157954,72.5264029 175.157954,66.6764654 C175.157954,62.0824846 174.008946,58.3854413 171.713372,55.584725 C169.415358,52.786451 166.597453,50.6146288 163.258436,49.0674269 C159.917589,47.5226673 155.367325,45.8716673 149.605813,44.1168692 C143.675886,42.2802538 138.93768,40.5449942 135.389365,38.9153644 C131.839219,37.2863452 128.85473,34.9264654 126.433454,31.8345038 C124.010959,28.744374 122.801542,24.6492346 122.801542,19.5521385 C122.801542,13.6203837 125.347298,8.87925385 130.441861,5.32691731 C135.533983,1.7764125 142.298054,0.000244230769 150.733464,0.000244230769 C154.823637,0.000244230769 158.978491,0.5857875 163.195586,1.75504231 C167.41146,2.92612885 171.024456,4.47088846 174.030303,6.39176346 L172.777562,8.39750865 C169.9383,6.56028269 166.534602,5.11932115 162.56952,4.07340288 Z" id="Fill-1"></path>
                <polygon id="Fill-3" points="193.192791 0.501466827 247.928985 0.501466827 247.928985 3.0078851 195.697664 3.0078851 195.697664 41.7355582 242.167473 41.7355582 242.167473 44.242587 195.697664 44.242587 195.697664 85.6018466 249.6827 85.6018466 249.6827 88.1082649 193.192791 88.1082649"></polygon>
                <path d="M265.338855,58.9060192 L316.067252,58.9060192 L290.515112,3.38381731 L265.338855,58.9060192 Z M329.594784,88.1086923 L317.319994,61.4124375 L264.211815,61.4124375 L252.062116,88.1086923 L249.055658,88.1086923 L289.13728,0.501283654 L291.893555,0.501283654 L332.47554,88.1086923 L329.594784,88.1086923 Z" id="Fill-5"></path>
                <path d="M5.97868215,117.825838 C5.40509381,117.643275 4.8992377,117.551688 4.46294444,117.551688 C3.97539435,117.551688 3.58974772,117.643275 3.30539435,117.825838 C3.02104098,118.009011 2.8788643,118.263011 2.8788643,118.587838 C2.8788643,118.882746 2.97832696,119.128809 3.17603188,119.327246 C3.37373679,119.525684 3.62269854,119.688097 3.92230692,119.815097 C4.2219153,119.942097 4.63074954,120.081919 5.14880965,120.233953 C5.86945628,120.447655 6.46074044,120.660746 6.92327231,120.874448 C7.38519399,121.087539 7.77877322,121.402597 8.10339982,121.819621 C8.42863661,122.236035 8.59094991,122.784943 8.59094991,123.465126 C8.59094991,124.116001 8.4158224,124.682006 8.0655674,125.164972 C7.71531239,125.647938 7.2326439,126.016116 6.61817213,126.270116 C6.00431056,126.524116 5.30074954,126.651116 4.50870947,126.651116 C3.67639617,126.651116 2.86360929,126.49603 2.07156922,126.185857 C1.27952914,125.876294 0.588782332,125.461713 -6.10200364e-05,124.943943 L0.852999089,123.206241 C1.39119581,123.703862 1.99529417,124.095852 2.66590437,124.37977 C3.33590437,124.664299 3.96013934,124.806563 4.53921949,124.806563 C5.10792623,124.806563 5.5545929,124.69727 5.87982969,124.478684 C6.20445628,124.260708 6.36737978,123.963357 6.36737978,123.587241 C6.36737978,123.282563 6.26791712,123.031006 6.0702122,122.832568 C5.87189709,122.634741 5.62110474,122.47477 5.31600455,122.352655 C5.01151457,122.230539 4.59474772,122.09377 4.06692441,121.941126 C3.34627778,121.728035 2.75682423,121.519828 2.30039435,121.316506 C1.84335428,121.113184 1.45221585,120.805453 1.12697905,120.394535 C0.802352459,119.982395 0.639428962,119.441424 0.639428962,118.771011 C0.639428962,118.151275 0.80479326,117.609693 1.13491166,117.147487 C1.46503005,116.68528 1.93183333,116.326871 2.53593169,116.072871 C3.14003005,115.818871 3.83870947,115.691871 4.63074954,115.691871 C5.32088616,115.691871 6.00431056,115.793838 6.67919217,115.996549 C7.35468397,116.200482 7.95634153,116.474631 8.48416485,116.820217 L7.66161475,118.603102 C7.11365483,118.267895 6.55227049,118.009011 5.97868215,117.825838" id="Fill-7"></path>
                <polygon id="Fill-10" points="14.1810565 126.528635 16.2221767 126.528635 16.2221767 115.859413 14.1810565 115.859413"></polygon>
                <path d="M27.5171075,117.825838 C26.9435191,117.643275 26.437663,117.551688 26.0013698,117.551688 C25.5138197,117.551688 25.128173,117.643275 24.8438197,117.825838 C24.5594663,118.009011 24.4172896,118.263011 24.4172896,118.587838 C24.4172896,118.882746 24.5167523,119.128809 24.7144572,119.327246 C24.9121621,119.525684 25.1611239,119.688097 25.4607322,119.815097 C25.7603406,119.942097 26.1691749,120.081919 26.687235,120.233953 C27.4078816,120.447655 27.9991658,120.660746 28.4616976,120.874448 C28.9236193,121.087539 29.3171985,121.402597 29.6418251,121.819621 C29.9670619,122.236035 30.1293752,122.784943 30.1293752,123.465126 C30.1293752,124.116001 29.9542477,124.682006 29.6039927,125.164972 C29.2537377,125.647938 28.7710692,126.016116 28.1565974,126.270116 C27.5427359,126.524116 26.8391749,126.651116 26.0471348,126.651116 C25.2148215,126.651116 24.4020346,126.49603 23.6099945,126.185857 C22.8179545,125.876294 22.1272077,125.461713 21.5383643,124.943943 L22.3914244,123.206241 C22.9296211,123.703862 23.5337195,124.095852 24.2043297,124.37977 C24.8743297,124.664299 25.4985647,124.806563 26.0776448,124.806563 C26.6463515,124.806563 27.0930182,124.69727 27.418255,124.478684 C27.7428816,124.260708 27.9058051,123.963357 27.9058051,123.587241 C27.9058051,123.282563 27.8063424,123.031006 27.6086375,122.832568 C27.4103224,122.634741 27.1595301,122.47477 26.8544299,122.352655 C26.5499399,122.230539 26.133173,122.09377 25.6053497,121.941126 C24.8847031,121.728035 24.2952495,121.519828 23.8388197,121.316506 C23.3817796,121.113184 22.9906412,120.805453 22.6654044,120.394535 C22.3407778,119.982395 22.1778543,119.441424 22.1778543,118.771011 C22.1778543,118.151275 22.3432186,117.609693 22.673337,117.147487 C23.0034554,116.68528 23.4702587,116.326871 24.074357,116.072871 C24.6784554,115.818871 25.3771348,115.691871 26.1691749,115.691871 C26.8593115,115.691871 27.5427359,115.793838 28.2176175,115.996549 C28.8931093,116.200482 29.4947668,116.474631 30.0225902,116.820217 L29.2000401,118.603102 C28.6520801,118.267895 28.0906958,118.009011 27.5171075,117.825838" id="Fill-12"></path>
                <polygon id="Fill-13" points="34.5314217 115.859658 43.2292177 115.859658 43.2292177 117.673682 39.9085073 117.673682 39.9085073 126.528879 37.8521321 126.528879 37.8521321 117.673682 34.5314217 117.673682"></polygon>
                <polygon id="Fill-14" points="48.3318352 115.859658 56.146061 115.859658 56.146061 117.643153 50.3729554 117.643153 50.3729554 120.279624 55.5517259 120.279624 55.5517259 122.063119 50.3729554 122.063119 50.3729554 124.745384 56.3285109 124.745384 56.3285109 126.528879 48.3318352 126.528879"></polygon>
                <polygon id="Fill-15" points="62.0562787 115.859658 64.3866339 115.859658 67.9203042 122.733533 71.4240747 115.859658 73.7544299 115.859658 73.7544299 126.528879 71.8811148 126.528879 71.8811148 118.877739 68.5604044 125.431672 67.2503042 125.431672 63.9143388 118.877739 63.9143388 126.528879 62.0562787 126.528879"></polygon>
                <path d="M82.4979909,122.520258 L86.2452313,122.520258 L84.386561,118.039234 L82.4979909,122.520258 Z M87.9208415,126.528696 L86.9762514,124.273225 L81.7669709,124.273225 L80.8223807,126.528696 L78.7049854,126.528696 L83.381561,115.859475 L85.4983461,115.859475 L90.1139016,126.528696 L87.9208415,126.528696 Z" id="Fill-16"></path>
                <polygon id="Fill-17" points="102.452275 115.859658 110.266501 115.859658 110.266501 117.643153 104.493395 117.643153 104.493395 120.279624 109.672166 120.279624 109.672166 122.063119 104.493395 122.063119 104.493395 124.745384 110.448951 124.745384 110.448951 126.528879 102.452275 126.528879"></polygon>
                <path d="M121.195372,117.825838 C120.621784,117.643275 120.115928,117.551688 119.679635,117.551688 C119.192085,117.551688 118.806438,117.643275 118.522085,117.825838 C118.237731,118.009011 118.095555,118.263011 118.095555,118.587838 C118.095555,118.882746 118.195017,119.128809 118.392722,119.327246 C118.590427,119.525684 118.839389,119.688097 119.138997,119.815097 C119.438606,119.942097 119.84744,120.081919 120.3655,120.233953 C121.086147,120.447655 121.677431,120.660746 122.139963,120.874448 C122.601884,121.087539 122.995464,121.402597 123.32009,121.819621 C123.645327,122.236035 123.80764,122.784943 123.80764,123.465126 C123.80764,124.116001 123.632513,124.682006 123.282258,125.164972 C122.932003,125.647938 122.449334,126.016116 121.834862,126.270116 C121.221001,126.524116 120.51744,126.651116 119.7254,126.651116 C118.893087,126.651116 118.0803,126.49603 117.28826,126.185857 C116.496219,125.876294 115.805473,125.461713 115.216629,124.943943 L116.069689,123.206241 C116.607886,123.703862 117.211985,124.095852 117.882595,124.37977 C118.552595,124.664299 119.17683,124.806563 119.75591,124.806563 C120.324617,124.806563 120.771283,124.69727 121.09652,124.478684 C121.421147,124.260708 121.58407,123.963357 121.58407,123.587241 C121.58407,123.282563 121.484607,123.031006 121.286903,122.832568 C121.088587,122.634741 120.837795,122.47477 120.532695,122.352655 C120.228205,122.230539 119.811438,122.09377 119.283615,121.941126 C118.562968,121.728035 117.973515,121.519828 117.517085,121.316506 C117.060045,121.113184 116.668906,120.805453 116.343669,120.394535 C116.019043,119.982395 115.856119,119.441424 115.856119,118.771011 C115.856119,118.151275 116.021484,117.609693 116.351602,117.147487 C116.68172,116.68528 117.148524,116.326871 117.752622,116.072871 C118.35672,115.818871 119.0554,115.691871 119.84744,115.691871 C120.537577,115.691871 121.221001,115.793838 121.895883,115.996549 C122.571374,116.200482 123.173032,116.474631 123.700855,116.820217 L122.878305,118.603102 C122.330345,118.267895 121.768961,118.009011 121.195372,117.825838" id="Fill-18"></path>
                <path d="M135.787765,117.917363 C135.275197,117.673743 134.754696,117.551627 134.226262,117.551627 C133.566026,117.551627 132.962537,117.709156 132.413967,118.024214 C131.865397,118.339272 131.433985,118.773392 131.119122,119.327185 C130.804259,119.880978 130.646827,120.487892 130.646827,121.148536 C130.646827,121.80918 130.804259,122.416094 131.119122,122.969887 C131.433985,123.524291 131.865397,123.960853 132.413967,124.280796 C132.962537,124.600738 133.566026,124.760709 134.226262,124.760709 C134.733949,124.760709 135.244077,124.648974 135.757255,124.425502 C136.270434,124.202031 136.724423,123.892469 137.121053,123.495594 L138.323758,124.837031 C137.765424,125.406089 137.115561,125.856084 136.374168,126.185796 C135.632774,126.516118 134.881617,126.681584 134.120087,126.681584 C133.09373,126.681584 132.154632,126.437353 131.301572,125.949502 C130.448512,125.461651 129.778512,124.799175 129.291572,123.960853 C128.804022,123.122531 128.559942,122.195065 128.559942,121.179065 C128.559942,120.163065 128.808903,119.238651 129.306217,118.405214 C129.80353,117.572387 130.481463,116.916627 131.340015,116.439156 C132.197956,115.961075 133.149869,115.722339 134.196362,115.722339 C134.957893,115.722339 135.704168,115.874983 136.435188,116.179661 C137.166208,116.484339 137.791053,116.906248 138.308503,117.444776 L137.121053,118.938248 C136.744559,118.501685 136.300333,118.160983 135.787765,117.917363" id="Fill-19"></path>
                <path d="M146.504104,118.031541 C145.94516,118.351483 145.503375,118.788656 145.178749,119.34245 C144.853512,119.896243 144.691199,120.508651 144.691199,121.179065 C144.691199,121.849478 144.855953,122.464329 145.186071,123.023007 C145.516189,123.582296 145.957974,124.024353 146.511426,124.34918 C147.064878,124.674618 147.666536,124.837031 148.316399,124.837031 C148.956499,124.837031 149.550224,124.674618 150.098794,124.34918 C150.647364,124.024353 151.081217,123.582296 151.400962,123.023007 C151.721317,122.464329 151.881189,121.849478 151.881189,121.179065 C151.881189,120.508651 151.721317,119.896243 151.400962,119.34245 C151.081217,118.788656 150.647364,118.351483 150.098794,118.031541 C149.550224,117.711599 148.956499,117.551627 148.316399,117.551627 C147.666536,117.551627 147.062437,117.711599 146.504104,118.031541 M151.172747,116.439156 C152.041062,116.916627 152.723876,117.572387 153.221189,118.405214 C153.719113,119.238651 153.967464,120.163065 153.967464,121.179065 C153.967464,122.195065 153.719113,123.122531 153.221189,123.960853 C152.723876,124.798565 152.041062,125.461651 151.172747,125.949502 C150.304432,126.437353 149.342146,126.681584 148.285889,126.681584 C147.229632,126.681584 146.267956,126.437353 145.399641,125.949502 C144.531326,125.461651 143.847902,124.798565 143.351199,123.960853 C142.853275,123.122531 142.604313,122.195065 142.604313,121.179065 C142.604313,120.163065 142.853275,119.238651 143.351199,118.405214 C143.847902,117.572387 144.531326,116.916627 145.399641,116.439156 C146.267956,115.961075 147.229632,115.722339 148.285889,115.722339 C149.342146,115.722339 150.304432,115.961075 151.172747,116.439156" id="Fill-20"></path>
                <polygon id="Fill-21" points="159.420825 115.859658 161.461945 115.859658 161.461945 124.684937 166.062246 124.684937 166.062246 126.528879 159.420825 126.528879"></polygon>
                <path d="M173.860912,122.520258 L177.608152,122.520258 L175.749482,118.039234 L173.860912,122.520258 Z M179.283762,126.528696 L178.339172,124.273225 L173.129892,124.273225 L172.185301,126.528696 L170.067906,126.528696 L174.744482,115.859475 L176.861267,115.859475 L181.476822,126.528696 L179.283762,126.528696 Z" id="Fill-22"></path>
                <path d="M188.468498,121.590655 L190.874518,121.590655 C191.646422,121.590655 192.235875,121.422746 192.642269,121.087539 C193.048052,120.752333 193.251249,120.254713 193.251249,119.594068 C193.251249,118.943804 193.048052,118.455953 192.642269,118.130515 C192.235875,117.805688 191.646422,117.643275 190.874518,117.643275 L188.468498,117.643275 L188.468498,121.590655 Z M193.098699,126.529001 L191.255283,123.373539 C191.174737,123.38453 191.047815,123.388804 190.874518,123.388804 L188.468498,123.388804 L188.468498,126.529001 L186.426768,126.529001 L186.426768,115.85978 L190.874518,115.85978 C192.256012,115.85978 193.322032,116.179722 194.073799,116.820217 C194.824955,117.460102 195.200839,118.364366 195.200839,119.533011 C195.200839,120.366448 195.020219,121.07777 194.660201,121.666977 C194.299573,122.256184 193.77419,122.698241 193.083444,122.992539 L195.429054,126.529001 L193.098699,126.529001 Z" id="Fill-23"></path>
                <path d="M214.721393,124.280735 C215.243724,123.980941 215.652558,123.564528 215.947895,123.030884 C216.242012,122.49785 216.38907,121.890326 216.38907,121.209533 C216.38907,120.528739 216.23652,119.916941 215.93203,119.372917 C215.62754,118.829504 215.208943,118.407595 214.675628,118.107802 C214.142923,117.808009 213.545536,117.658417 212.88591,117.658417 L210.525045,117.658417 L210.525045,124.730119 L212.962185,124.730119 C213.612048,124.730119 214.198451,124.580528 214.721393,124.280735 M215.78009,116.538009 C216.622777,116.990446 217.282403,117.623004 217.76019,118.435682 C218.237367,119.24836 218.475955,120.168499 218.475955,121.194268 C218.475955,122.220648 218.234926,123.137735 217.752868,123.945528 C217.270199,124.753321 216.60264,125.385879 215.74958,125.843201 C214.89652,126.300523 213.926301,126.528879 212.840145,126.528879 L208.483314,126.528879 L208.483314,115.859658 L212.91642,115.859658 C213.98244,115.859658 214.937403,116.086182 215.78009,116.538009" id="Fill-24"></path>
                <polygon id="Fill-25" points="223.913756 115.859658 231.728592 115.859658 231.728592 117.643153 225.955486 117.643153 225.955486 120.279624 231.134257 120.279624 231.134257 122.063119 225.955486 122.063119 225.955486 124.745384 231.910432 124.745384 231.910432 126.528879 223.913756 126.528879"></polygon>
                <path d="M247.493423,122.520258 L251.241274,122.520258 L249.382604,118.039234 L247.493423,122.520258 Z M252.916274,126.528696 L251.972294,124.273225 L246.762403,124.273225 L245.818423,126.528696 L243.700418,126.528696 L248.376994,115.859475 L250.494389,115.859475 L255.109334,126.528696 L252.916274,126.528696 Z" id="Fill-26"></path>
                <polygon id="Fill-27" points="260.059768 115.859658 262.101498 115.859658 262.101498 124.684937 266.701189 124.684937 266.701189 126.528879 260.059768 126.528879"></polygon>
                <polygon id="Fill-28" points="271.956295 115.859658 279.771131 115.859658 279.771131 117.643153 273.998026 117.643153 273.998026 120.279624 279.176796 120.279624 279.176796 122.063119 273.998026 122.063119 273.998026 124.745384 279.952971 124.745384 279.952971 126.528879 271.956295 126.528879"></polygon>
                <path d="M287.721981,121.590655 L290.128001,121.590655 C290.899904,121.590655 291.489358,121.422746 291.895751,121.087539 C292.301535,120.752333 292.504731,120.254713 292.504731,119.594068 C292.504731,118.943804 292.301535,118.455953 291.895751,118.130515 C291.489358,117.805688 290.899904,117.643275 290.128001,117.643275 L287.721981,117.643275 L287.721981,121.590655 Z M292.352181,126.529001 L290.508766,123.373539 C290.428219,123.38453 290.301298,123.388804 290.128001,123.388804 L287.721981,123.388804 L287.721981,126.529001 L285.68025,126.529001 L285.68025,115.85978 L290.128001,115.85978 C291.509495,115.85978 292.575515,116.179722 293.327281,116.820217 C294.078438,117.460102 294.454321,118.364366 294.454321,119.533011 C294.454321,120.366448 294.273702,121.07777 293.913684,121.666977 C293.553056,122.256184 293.027673,122.698241 292.336926,122.992539 L294.682536,126.529001 L292.352181,126.529001 Z" id="Fill-29"></path>
                <polygon id="Fill-30" points="299.160858 115.859658 307.858654 115.859658 307.858654 117.673682 304.538554 117.673682 304.538554 126.528879 302.481568 126.528879 302.481568 117.673682 299.160858 117.673682"></polygon>
                <path d="M314.347342,122.520258 L318.095192,122.520258 L316.236522,118.039234 L314.347342,122.520258 Z M319.770192,126.528696 L318.826212,124.273225 L313.616321,124.273225 L312.672342,126.528696 L310.554336,126.528696 L315.230912,115.859475 L317.348307,115.859475 L321.963252,126.528696 L319.770192,126.528696 Z" id="Fill-31"></path>
                <path d="M331.857224,117.825838 C331.283636,117.643275 330.77778,117.551688 330.342097,117.551688 C329.854546,117.551688 329.46829,117.643275 329.183936,117.825838 C328.899583,118.009011 328.757406,118.263011 328.757406,118.587838 C328.757406,118.882746 328.856259,119.128809 329.054574,119.327246 C329.252279,119.525684 329.50124,119.688097 329.800849,119.815097 C330.100457,119.942097 330.509291,120.081919 331.027352,120.233953 C331.747998,120.447655 332.339282,120.660746 332.801814,120.874448 C333.263736,121.087539 333.656705,121.402597 333.981942,121.819621 C334.307179,122.236035 334.469492,122.784943 334.469492,123.465126 C334.469492,124.116001 334.294364,124.682006 333.944109,125.164972 C333.593854,125.647938 333.111186,126.016116 332.497324,126.270116 C331.882242,126.524116 331.179291,126.651116 330.387251,126.651116 C329.554938,126.651116 328.742761,126.49603 327.950111,126.185857 C327.158071,125.876294 326.467324,125.461713 325.878481,124.943943 L326.731541,123.206241 C327.269128,123.703862 327.874446,124.095852 328.543836,124.37977 C329.214446,124.664299 329.838681,124.806563 330.417761,124.806563 C330.986468,124.806563 331.433135,124.69727 331.758372,124.478684 C332.082998,124.260708 332.245922,123.963357 332.245922,123.587241 C332.245922,123.282563 332.147069,123.031006 331.948144,122.832568 C331.750439,122.634741 331.499036,122.47477 331.194546,122.352655 C330.890056,122.230539 330.47329,122.09377 329.945466,121.941126 C329.22482,121.728035 328.635976,121.519828 328.178936,121.316506 C327.721896,121.113184 327.330758,120.805453 327.006131,120.394535 C326.680894,119.982395 326.518581,119.441424 326.518581,118.771011 C326.518581,118.151275 326.683335,117.609693 327.013454,117.147487 C327.343572,116.68528 327.810375,116.326871 328.414474,116.072871 C329.019182,115.818871 329.717251,115.691871 330.509291,115.691871 C331.199428,115.691871 331.882242,115.793838 332.557734,115.996549 C333.233226,116.200482 333.834883,116.474631 334.362707,116.820217 L333.540767,118.603102 C332.991587,118.267895 332.430812,118.009011 331.857224,117.825838" id="Fill-32"></path>
                <path d="M39.6391648,18.3640779 C39.6391648,28.4495875 31.468582,36.6252125 21.3892923,36.6252125 C11.3106129,36.6252125 3.14003005,28.4495875 3.14003005,18.3640779 C3.14003005,8.27856827 11.3106129,0.102943269 21.3892923,0.102943269 C31.468582,0.102943269 39.6391648,8.27856827 39.6391648,18.3640779" id="Fill-33"></path>
                <path d="M91.0086384,18.3640779 C91.0086384,28.4495875 82.8380556,36.6252125 72.7587659,36.6252125 C62.6800865,36.6252125 54.5095036,28.4495875 54.5095036,18.3640779 C54.5095036,8.27856827 62.6800865,0.102943269 72.7587659,0.102943269 C82.8380556,0.102943269 91.0086384,8.27856827 91.0086384,18.3640779" id="Fill-34" fill-opacity="0.5"></path>
                <path d="M91.0086384,70.4414048 C91.0086384,80.5269144 82.8380556,88.7025394 72.7587659,88.7025394 C62.6800865,88.7025394 54.5095036,80.5269144 54.5095036,70.4414048 C54.5095036,60.3558952 62.6800865,52.1802702 72.7587659,52.1802702 C82.8380556,52.1802702 91.0086384,60.3558952 91.0086384,70.4414048" id="Fill-35"></path>
                <path d="M39.6391648,70.4414048 C39.6391648,80.5269144 31.468582,88.7025394 21.3892923,88.7025394 C11.3106129,88.7025394 3.14003005,80.5269144 3.14003005,70.4414048 C3.14003005,60.3558952 11.3106129,52.1802702 21.3892923,52.1802702 C31.468582,52.1802702 39.6391648,60.3558952 39.6391648,70.4414048" id="Fill-36"></path>
            </g>
        </g>
    </g>
</svg>